<?xml version="1.0" standalone="no"?><!DOCTYPE svg PUBLIC "-//W3C//DTD SVG 1.1//EN" "http://www.w3.org/Graphics/SVG/1.1/DTD/svg11.dtd"><svg t="1590844288292" class="icon" viewBox="0 0 1024 1024" version="1.1" xmlns="http://www.w3.org/2000/svg" p-id="17996" xmlns:xlink="http://www.w3.org/1999/xlink" width="200" height="200"><defs><style type="text/css"></style></defs><path d="M697.6 110.933333H328.533333c-49.066667 0-89.6 40.533333-89.6 89.6v625.066667c0 49.066667 40.533333 89.6 89.6 89.6h371.2c49.066667 0 89.6-40.533333 89.6-89.6V200.533333c-2.133333-49.066667-42.666667-89.6-91.733333-89.6z m38.4 616.533334c0 14.933333-12.8 27.733333-27.733333 27.733333H317.866667c-14.933333 0-27.733333-12.8-27.733334-27.733333V224c0-14.933333 12.8-27.733333 27.733334-27.733333h390.4c14.933333 0 27.733333 12.8 27.733333 27.733333v503.466667z" fill="#F94D79" p-id="17997"></path><path d="M605.866667 416c-8.533333-40.533333-46.933333-66.133333-87.466667-59.733333-23.466667 4.266667-44.8 21.333333-53.333333 42.666666-23.466667-34.133333-68.266667-44.8-104.533334-21.333333-21.333333 12.8-32 36.266667-34.133333 61.866667 0 6.4 0 10.666667 2.133333 17.066666 10.666667 72.533333 153.6 155.733333 153.6 155.733334s125.866667-106.666667 123.733334-179.2v-8.533334c2.133333-4.266667 0-6.4 0-8.533333z" fill="#F4628C" p-id="17998"></path><path d="M710.4 505.6c4.266667-29.866667-14.933333-59.733333-44.8-64-17.066667-2.133333-36.266667 2.133333-49.066667 14.933333-6.4-29.866667-36.266667-49.066667-66.133333-42.666666-17.066667 4.266667-32 17.066667-38.4 34.133333-2.133333 4.266667-2.133333 8.533333-4.266667 10.666667-12.8 53.333333 66.133333 149.333333 66.133334 149.333333s115.2-40.533333 134.4-91.733333c0-2.133333 2.133333-4.266667 2.133333-6.4v-4.266667z" fill="#FC95B3" p-id="17999"></path><path d="M512 834.133333m-40.533333 0a40.533333 40.533333 0 1 0 81.066666 0 40.533333 40.533333 0 1 0-81.066666 0Z" fill="#FFFFFF" opacity=".5" p-id="18000"></path><path d="M611.882667 165.696h-200.533334c-8.533333 0-17.066667-6.4-17.066666-17.066667s6.4-17.066667 17.066666-17.066666h200.533334c8.533333 0 17.066667 6.4 17.066666 17.066666s-8.533333 17.066667-17.066666 17.066667z" fill="#FFFFFF" opacity=".5" p-id="18001"></path></svg>