<?xml version="1.0" standalone="no"?><!DOCTYPE svg PUBLIC "-//W3C//DTD SVG 1.1//EN" "http://www.w3.org/Graphics/SVG/1.1/DTD/svg11.dtd"><svg t="1590913375918" class="icon" viewBox="0 0 1024 1024" version="1.1" xmlns="http://www.w3.org/2000/svg" p-id="2590" xmlns:xlink="http://www.w3.org/1999/xlink" width="200" height="200"><defs><style type="text/css"></style></defs><path d="M688.64 345.6c10.24 0 20.48 0 33.28 2.56-25.6-153.6-176.64-271.36-358.4-271.36C161.28 74.24 0 215.04 0 389.12c0 97.28 51.2 184.32 130.56 243.2-10.24 51.2-23.04 117.76-20.48 115.2 2.56 0 71.68-38.4 117.76-64 43.52 15.36 89.6 23.04 135.68 23.04h15.36c-5.12-23.04-7.68-43.52-7.68-66.56-2.56-163.84 140.8-294.4 317.44-294.4z m-184.32-102.4c25.6 0 46.08 20.48 46.08 46.08s-20.48 46.08-46.08 46.08-46.08-20.48-46.08-46.08c2.56-28.16 23.04-46.08 46.08-46.08zM227.84 332.8c-25.6 0-46.08-20.48-46.08-46.08s20.48-46.08 46.08-46.08 46.08 20.48 46.08 46.08c-2.56 25.6-23.04 46.08-46.08 46.08z m788.48 294.4c0-145.92-138.24-263.68-309.76-263.68-171.52 0-309.76 117.76-309.76 263.68 0 145.92 138.24 263.68 309.76 263.68 43.52 0 89.6-7.68 130.56-25.6 28.16 15.36 58.88 30.72 87.04 46.08 2.56 2.56-7.68-40.96-17.92-84.48 69.12-46.08 110.08-117.76 110.08-199.68zM588.8 570.88c-25.6 0-46.08-20.48-46.08-46.08s20.48-46.08 46.08-46.08 46.08 20.48 46.08 46.08-20.48 46.08-46.08 46.08z m227.84 0c-25.6 0-46.08-20.48-46.08-46.08s20.48-46.08 46.08-46.08 46.08 20.48 46.08 46.08-23.04 46.08-46.08 46.08z" fill="#52AB43" p-id="2591"></path></svg>