<?xml version="1.0" standalone="no"?><!DOCTYPE svg PUBLIC "-//W3C//DTD SVG 1.1//EN" "http://www.w3.org/Graphics/SVG/1.1/DTD/svg11.dtd"><svg class="icon" width="200px" height="200.00px" viewBox="0 0 1024 1024" version="1.1" xmlns="http://www.w3.org/2000/svg"><path fill="#1296db" d="M163.5903125 508.70515625c125.55-125.57109375 251.10421875-251.12109375 376.65-376.67109375h-29.83078125c125.63859375 125.6428125 251.27296875 251.285625 376.90734375 376.94953125 19.25015625 19.26703125 49.0809375-10.59328125 29.8265625-29.851875L540.23609375 102.20328125c-8.1253125-8.1253125-21.70546875-8.1253125-29.83078125 0L133.75109375 478.8575c-19.2459375 19.254375 10.58484375 49.1146875 29.83921875 29.84765625z"  /><path fill="#1296db" d="M773.92953125 862.5190625H276.29421875c-24.688125 0-25.734375-22.41421875-25.734375-40.381875v-302.96109375c0-27.20671875-42.1875-27.20671875-42.1875 0v304.8215625c0 25.56140625 4.53515625 49.2328125 26.071875 66.2175 16.22109375 12.79546875 34.65703125 14.495625 54.18984375 14.495625h485.29546875c27.2025-0.00421875 27.2025-42.19171875 0-42.19171875zM799.24203125 519.171875v257.22140625c0 27.2025 42.1875 27.2025 42.1875 0V519.171875c0-27.20671875-42.1875-27.20671875-42.1875 0z"  /><path fill="#1296db" d="M432.54828125 586.60859375H328.484375l21.09375 21.09375V503.6384375l-21.09375 21.09375h104.06390625l-21.09375-21.09375v104.06390625c0 27.2025 42.1875 27.2025 42.1875 0V503.6384375c0-11.5003125-9.5934375-21.09375-21.09375-21.09375H328.484375c-11.5003125 0-21.09375 9.5934375-21.09375 21.09375v104.06390625c0 11.5003125 9.5934375 21.09375 21.09375 21.09375h104.06390625c27.20671875 0 27.20671875-42.1875 0-42.1875zM614.56625 771.4615625H510.498125l21.09375 21.09375v-104.06390625l-21.09375 21.09375h104.068125l-21.09375-21.09375v104.06390625c0 27.2025 42.1875 27.2025 42.1875 0v-104.06390625c0-11.5003125-9.59765625-21.09375-21.09375-21.09375H510.498125c-11.5003125 0-21.09375 9.5934375-21.09375 21.09375v104.06390625c0 11.5003125 9.5934375 21.09375 21.09375 21.09375h104.068125c27.2025 0 27.2025-42.1875 0-42.1875zM432.54828125 770.255H328.484375l21.09375 21.09375v-104.06390625l-21.09375 21.09375h104.06390625l-21.09375-21.09375v104.06390625c0 27.2025 42.1875 27.2025 42.1875 0v-104.06390625c0-11.5003125-9.5934375-21.09375-21.09375-21.09375H328.484375c-11.5003125 0-21.09375 9.5934375-21.09375 21.09375v104.06390625c0 11.5003125 9.5934375 21.09375 21.09375 21.09375h104.06390625c27.20671875 0 27.20671875-42.1875 0-42.1875z"  /></svg>