<?xml version="1.0" standalone="no"?><!DOCTYPE svg PUBLIC "-//W3C//DTD SVG 1.1//EN" "http://www.w3.org/Graphics/SVG/1.1/DTD/svg11.dtd"><svg class="icon" width="300px" height="300.00px" viewBox="0 0 1024 1024" version="1.1" xmlns="http://www.w3.org/2000/svg"><path fill="#ffffff" d="M538.624 110.592c-219.136 0-397.312 178.176-397.312 397.312s178.176 397.312 397.312 397.312 397.312-178.176 397.312-397.312S757.76 110.592 538.624 110.592z m0 718.848c-176.128 0-319.488-143.36-319.488-319.488s143.36-319.488 319.488-319.488 319.488 143.36 319.488 319.488-143.36 319.488-319.488 319.488z m38.912-303.104v-180.224c0-20.48-18.432-38.912-38.912-38.912-22.528 0-38.912 18.432-38.912 38.912v196.608c0 10.24 4.096 20.48 12.288 26.624l92.16 92.16c8.192 8.192 16.384 10.24 26.624 10.24s20.48-4.096 26.624-12.288c14.336-14.336 14.336-40.96 0-55.296l-79.872-77.824z" /></svg>