<?xml version="1.0" standalone="no"?><!DOCTYPE svg PUBLIC "-//W3C//DTD SVG 1.1//EN" "http://www.w3.org/Graphics/SVG/1.1/DTD/svg11.dtd"><svg class="icon" width="200px" height="200.00px" viewBox="0 0 1024 1024" version="1.1" xmlns="http://www.w3.org/2000/svg"><path fill="#1296db" d="M899.712 128.832H123.968a59.84 59.84 0 0 0-59.648 59.648v188.288c0 9.856 8 17.92 17.792 17.92a17.92 17.92 0 0 0 17.856-17.92v-20.8h0.128V188.48a23.68 23.68 0 0 1 0.448-4.608l403.584 313.216a17.92 17.92 0 0 0 23.68-1.472l0.448-0.32 395.328-306.816v596.736a23.936 23.936 0 0 1-23.872 23.872H82.176a17.92 17.92 0 0 0-17.92 17.92c0 9.792 8.064 17.92 17.92 17.92h817.536c32.768 0 59.648-26.88 59.648-59.712V188.48a59.84 59.84 0 0 0-59.648-59.648zM515.008 460.16L134.144 164.608h761.728l-380.864 295.68z"  /><path fill="#1296db" d="M447.552 677.12a17.92 17.92 0 0 0-17.92-17.92H81.92a17.92 17.92 0 1 0 0 35.84h347.264a17.984 17.984 0 0 0 18.368-17.92zM278.848 512H81.92a17.92 17.92 0 1 0 0 35.84h196.928a17.92 17.92 0 1 0 0-35.84z"  /></svg>