<?xml version="1.0" standalone="no"?><!DOCTYPE svg PUBLIC "-//W3C//DTD SVG 1.1//EN" "http://www.w3.org/Graphics/SVG/1.1/DTD/svg11.dtd"><svg class="icon" width="300px" height="300.00px" viewBox="0 0 1024 1024" version="1.1" xmlns="http://www.w3.org/2000/svg"><path fill="#ffffff" d="M643.84582 117.330315C640.29061 113.910579 628.47449 109.14491 623.550902 109.14491L273.357336 109.14491C265.084187 109.14491 258.350499 115.882086 258.350499 124.163283L258.350499 899.836718C258.350499 908.109244 265.091808 914.85509 273.271439 914.85509L750.728561 914.85509C758.97484201 914.85509 765.649501 908.184856 765.649501 899.975649L765.649501 245.294193C765.649501 240.953427 761.00134 230.02155 757.873857 227.013243L643.84582 117.330315ZM788.904531 194.753283C800.823938 206.218493 810.411178 228.806402 810.411178 245.294193L810.411178 899.975649C810.411178 932.911726 783.69036 959.616766 750.728561 959.61676601L273.271439 959.61676601C240.392484 959.61676601 213.58882199 932.852327 213.588822 899.83671801L213.588822 124.163283C213.588822 91.175795 240.348097 64.383234 273.357336 64.38323399L623.550902 64.383234C640.067821 64.383234 662.998701 73.645174 674.876494 85.070355L788.904531 194.753283Z"  /><path fill="#ffffff" d="M437.397206 213.588822C437.397206 205.348426 430.717043 198.66826301 422.476647 198.66826301 414.23625 198.66826301 407.556088 205.348426 407.55608801 213.588822L407.556088 332.953293C407.556088 341.19369 414.23625 347.873852 422.476647 347.873852 430.717043 347.873852 437.397206 341.19369 437.397206 332.953293L437.397206 213.588822Z"  /><path fill="#ffffff" d="M437.397206 631.364471L437.397206 601.523353 362.794411 601.523353 362.794411 631.364471Z"  /><path fill="#ffffff" d="M661.205589 631.364471L661.205589 601.523353 556.76167699 601.523353 556.761677 631.364471Z"  /><path fill="#ffffff" d="M661.205589 750.728942L661.205589 720.887824 586.602794 720.887824 586.602794 750.728942Z"  /><path fill="#ffffff" d="M437.397206 750.728942L437.397206 720.887824 362.794411 720.887824 362.794411 750.728942Z"  /><path fill="#ffffff" d="M512 213.58882199C512 205.348426 505.319838 198.66826301 497.079441 198.668263 488.839044 198.668263 482.158882 205.348426 482.158882 213.588822L482.158882 332.95329301C482.15888199 341.19369 488.83904399 347.873852 497.079441 347.873852 505.319838 347.873852 512 341.19369 512 332.953293L512 213.58882199Z"  /><path fill="#ffffff" d="M362.794411 213.588822C362.794411 205.348426 356.114249 198.668263 347.873852 198.66826301 339.633456 198.668263 332.953293 205.348426 332.95329301 213.588822L332.953293 332.953293C332.953293 341.19369 339.633456 347.873852 347.873852 347.873852 356.114249 347.873852 362.794411 341.19369 362.794411 332.953293L362.794411 213.588822Z"  /><path fill="#ffffff" d="M467.238323 526.920559L437.397206 526.920559 437.397206 825.331737 467.238323 825.331737Z"  /><path fill="#ffffff" d="M586.602794 631.382355L556.761677 631.382355 556.761677 825.331737 586.602794 825.331737Z"  /><path fill="#ffffff" d="M601.60834 825.331737C634.527453 825.331737 661.205589 798.652076 661.205589 765.734488L661.205589 586.517808C661.205589 553.598695 634.525928 526.920559 601.60834 526.920559L422.39166 526.920559C389.472547 526.920559 362.794411 553.60022 362.794411 586.517808L362.794411 765.734488C362.794411 798.6536 389.474072 825.33173699 422.39166 825.331737L601.60834 825.331737ZM332.95329301 765.734488L332.95329301 586.517808C332.953293 537.122362 372.988817 497.079441 422.39166 497.079441L601.60834 497.079441C651.003785 497.079441 691.046707 537.11496399 691.04670699 586.517808L691.04670699 765.734488C691.04670699 815.129933 651.011183 855.172854 601.60834 855.172854L422.39166 855.172854C372.996215 855.172854 332.953293 815.137331 332.95329301 765.734488Z"  /></svg>