<?xml version="1.0" standalone="no"?><!DOCTYPE svg PUBLIC "-//W3C//DTD SVG 1.1//EN" "http://www.w3.org/Graphics/SVG/1.1/DTD/svg11.dtd"><svg class="icon" width="200px" height="200.00px" viewBox="0 0 1024 1024" version="1.1" xmlns="http://www.w3.org/2000/svg"><path fill="#1296db" d="M461.013333 737.066667v61.653333H512v-61.653333h33.066667a25.386667 25.386667 0 0 0 0-50.56h-307.2a75.733333 75.733333 0 0 1-76.16-76.16V301.226667a75.733333 75.733333 0 0 1 76.16-75.946667h498.346666a76.16 76.16 0 0 1 75.946667 69.973333v22.826667a25.386667 25.386667 0 0 0 50.773333 0v-27.093333a128 128 0 0 0-126.506666-116.48H237.866667a126.506667 126.506667 0 0 0-126.72 126.72v309.12a126.506667 126.506667 0 0 0 126.72 126.72z m253.226667 61.653333H258.133333a25.386667 25.386667 0 0 0 0 50.773333h456.106667a25.386667 25.386667 0 0 0 0-50.773333z"  /><path fill="#1296db" d="M901.12 477.653333l-40.533333-10.026666c0-1.706667-1.706667-2.56-1.706667-4.266667l21.333333-35.413333a15.573333 15.573333 0 0 0-2.56-20.266667L832 362.666667a16.853333 16.853333 0 0 0-21.333333-2.56l-36.266667 22.826666-6.4-35.2a16.213333 16.213333 0 0 0-16-12.8h-64a16.213333 16.213333 0 0 0-16 12.8l-7.68 33.066667-37.973333-23.68a21.333333 21.333333 0 0 0-22.826667 3.413333L557.866667 405.333333a16.853333 16.853333 0 0 0-3.2 21.333334l23.68 38.826666-49.92 11.733334a16.426667 16.426667 0 0 0-12.8 16v64a16 16 0 0 0 12.8 16l48.853333 11.946666L554.666667 624a16.853333 16.853333 0 0 0 2.56 21.333333l44.8 44.8a16.64 16.64 0 0 0 21.333333 2.56l33.706667-20.266666 11.093333 46.506666a16 16 0 0 0 16 12.586667h64a16 16 0 0 0 16-12.586667l11.093333-47.36 34.56 21.333334a16.853333 16.853333 0 0 0 21.333334-2.346667L874.666667 645.333333a16.64 16.64 0 0 0 2.56-20.266666l-20.266667-33.706667a17.066667 17.066667 0 0 1 3.413333-6.826667l39.68-8.533333a16.213333 16.213333 0 0 0 12.8-16v-64a15.36 15.36 0 0 0-11.733333-17.28z m-21.333333 67.626667l-34.773334 8.533333a17.28 17.28 0 0 0-11.733333 10.88 123.946667 123.946667 0 0 1-8.533333 19.413334 18.56 18.56 0 0 0 0 17.066666l18.773333 30.293334-24.32 26.24-32.213333-19.413334a15.573333 15.573333 0 0 0-16 0 128 128 0 0 0-11.733334 5.12 19.2 19.2 0 0 0-11.093333 11.946667l-11.733333 42.666667h-38.186667l-10.88-46.506667a17.706667 17.706667 0 0 0-10.24-11.733333 31.573333 31.573333 0 0 1-9.386667-4.266667 15.573333 15.573333 0 0 0-16 0l-33.066666 21.333333-26.24-26.24 21.333333-33.706666a15.573333 15.573333 0 0 0 0-16 94.72 94.72 0 0 1-5.973333-13.653334 19.2 19.2 0 0 0-11.733334-10.88l-44.8-11.093333v-37.973333l46.08-11.093334a17.706667 17.706667 0 0 0 11.733334-10.24 95.36 95.36 0 0 1 5.973333-12.586666 18.133333 18.133333 0 0 0 0-16.853334l-21.333333-36.48L618.666667 393.813333l39.68 24.533334a16 16 0 0 0 15.146666 0l7.68-2.56a19.2 19.2 0 0 0 10.88-11.733334l8.533334-35.413333h35.413333l7.68 34.56a21.333333 21.333333 0 0 0 10.88 12.8 31.146667 31.146667 0 0 1 10.24 4.053333 16.426667 16.426667 0 0 0 15.146667 0l35.626666-21.333333 26.24 26.24-19.413333 32.213333a15.146667 15.146667 0 0 0 0 16.853334 62.506667 62.506667 0 0 1 7.466667 16.853333 19.2 19.2 0 0 0 11.946666 11.093333l36.266667 8.533334v35.413333h1.706667z"  /><path fill="#1296db" d="M715.093333 449.066667a85.333333 85.333333 0 1 0 85.333334 85.333333 85.333333 85.333333 0 0 0-85.333334-85.333333z m0 135.04A50.773333 50.773333 0 1 1 765.866667 533.333333a49.706667 49.706667 0 0 1-50.773334 50.56z"  /></svg>