<?xml version="1.0" standalone="no"?><!DOCTYPE svg PUBLIC "-//W3C//DTD SVG 1.1//EN" "http://www.w3.org/Graphics/SVG/1.1/DTD/svg11.dtd"><svg class="icon" width="200px" height="200.00px" viewBox="0 0 1024 1024" version="1.1" xmlns="http://www.w3.org/2000/svg"><path fill="#1296db" d="M409.8 928.4H199.1c-33.1 0-60-26.9-60-60V657.8c0-33.1 26.9-60 60-60h210.7c33.1 0 60 26.9 60 60v210.7c0 33-27 59.9-60 59.9zM199.1 637.8c-11 0-20 9-20 20v210.7c0 11 9 20 20 20h210.7c11 0 20-9 20-20V657.8c0-11-9-20-20-20H199.1zM865.6 928.4H654.9c-33.1 0-60-26.9-60-60V657.8c0-33.1 26.9-60 60-60h210.7c33.1 0 60 26.9 60 60v210.7c0 33-26.9 59.9-60 59.9zM654.9 637.8c-11 0-20 9-20 20v210.7c0 11 9 20 20 20h210.7c11 0 20-9 20-20V657.8c0-11-9-20-20-20H654.9zM865.6 473H654.9c-33.1 0-60-26.9-60-60V202.3c0-33.1 26.9-60 60-60h210.7c33.1 0 60 26.9 60 60V413c0 33.1-26.9 60-60 60zM654.9 182.3c-11 0-20 9-20 20V413c0 11 9 20 20 20h210.7c11 0 20-9 20-20V202.3c0-11-9-20-20-20H654.9zM304.4 516.6c-16 0-31.1-6.2-42.4-17.6L113 350c-23.4-23.4-23.4-61.5 0-84.9l149-149c11.3-11.3 26.4-17.6 42.4-17.6s31.1 6.2 42.4 17.6l149 149c23.4 23.4 23.4 61.5 0 84.9l-149 149c-11.3 11.4-26.3 17.6-42.4 17.6z m0-377.9c-5.3 0-10.4 2.1-14.1 5.9l-149 149c-7.8 7.8-7.8 20.5 0 28.3l149 149c3.8 3.8 8.8 5.9 14.1 5.9 5.3 0 10.4-2.1 14.1-5.9l149-149c7.8-7.8 7.8-20.5 0-28.3l-149-149c-3.7-3.8-8.7-5.9-14.1-5.9z"  /></svg>