<?xml version="1.0" standalone="no"?><!DOCTYPE svg PUBLIC "-//W3C//DTD SVG 1.1//EN" "http://www.w3.org/Graphics/SVG/1.1/DTD/svg11.dtd"><svg t="1598972022123" class="icon" viewBox="0 0 1024 1024" version="1.1" xmlns="http://www.w3.org/2000/svg" p-id="2615" xmlns:xlink="http://www.w3.org/1999/xlink" width="300" height="300"><defs><style type="text/css"></style></defs><path d="M733.888 850.368c-74.88 59.84-164.928 91.392-260.416 91.392-230.912 0-418.816-188.288-418.816-419.776 0-231.488 187.904-419.84 418.816-419.84 220.672 0 404.224 172.864 417.856 393.536l0.448 6.656 54.72 0-0.448-7.488c-3.072-54.528-15.296-107.52-36.352-157.568-23.808-56.512-57.92-107.264-101.44-150.848-43.584-43.584-94.208-77.824-150.528-101.632-58.368-24.768-120.384-37.312-184.32-37.312-63.872 0-125.888 12.544-184.256 37.312C232.832 108.672 182.208 142.848 138.624 186.432 95.168 230.08 61.056 280.832 37.248 337.344 12.48 395.904 0 457.984 0 521.984s12.48 126.144 37.248 184.704c23.808 56.512 57.92 107.264 101.376 150.784 43.52 43.648 94.208 77.824 150.592 101.696 58.368 24.768 120.384 37.312 184.256 37.312s125.888-12.544 184.32-37.312c54.72-23.168 104.192-56.256 146.944-98.24l12.288-12.096-81.216 0L733.888 850.368z" p-id="2616" fill="#ffffff"></path><path d="M624.96 547.84c14.848 0 27.008-12.288 27.008-27.456 0-15.168-12.096-27.52-27.008-27.52L505.728 492.864 505.728 477.056c0.576-1.152 1.024-2.304 1.344-3.52l115.84-123.52c10.432-10.688 10.432-28.032 0-38.656-5.12-5.248-11.904-8.128-19.136-8.128s-14.08 2.88-19.2 8.128L478.784 425.344 372.992 311.488 372.928 311.36c-5.12-5.248-11.968-8.128-19.2-8.128S339.776 306.112 334.656 311.36C324.16 321.984 324.16 339.328 334.592 350.016L450.368 473.6C450.752 474.816 451.264 475.968 451.84 477.056l0 15.808L332.608 492.864c-14.848 0-27.008 12.288-27.008 27.52 0 15.104 12.096 27.456 27.008 27.456L451.84 547.84l0 32.768L332.608 580.608c-14.848 0-27.008 12.288-27.008 27.456s12.096 27.456 27.008 27.456L451.84 635.52l0 79.872c0 15.104 12.032 27.456 26.944 27.456 14.912 0 27.008-12.288 27.008-27.456L505.792 635.456l119.168 0c14.848 0 27.008-12.288 27.008-27.456S639.808 580.544 624.96 580.544L505.728 580.544 505.728 547.84 624.96 547.84z" p-id="2617" fill="#ffffff"></path><path d="M1022.144 665.92c-0.704-1.664-1.536-2.944-2.24-3.84-0.192-0.256-0.32-0.448-0.448-0.64s-0.192-0.32-0.256-0.512c-0.448-0.832-1.088-1.984-2.176-3.2l-100.608-106.368c-4.736-5.056-11.264-7.872-18.176-7.872-6.656 0-12.864 2.56-17.6 7.232C870.656 560.64 870.4 576.832 880 587.008l59.52 62.912-223.232 0c-13.952 0-25.28 11.52-25.28 25.664 0 14.144 11.328 25.6 25.28 25.6l223.232 0-59.584 62.912c-9.536 10.176-9.28 26.368 0.64 36.16 4.736 4.672 11.008 7.232 17.6 7.232 6.912 0 13.376-2.816 18.176-7.872l100.544-106.368c1.152-1.152 1.664-2.304 2.112-3.072 0.064-0.128 0.128-0.256 0.192-0.384 0.192-0.192 0.32-0.448 0.512-0.704 0.704-0.96 1.664-2.24 2.368-4.032 1.28-3.136 1.856-6.4 1.856-9.6C1024 672.32 1023.36 669.056 1022.144 665.92z" p-id="2618" fill="#ffffff"></path></svg>